# xmcd CD database file
#
# Track frame offsets:
#	150
#	24875
#	53337
#	79612
#	101212
#	131712
#	155725
#	180162
#	209100
#	233650
#	258762
#
# Disc length: 3777 seconds
#
# Revision: 4
# Processed by: cddbd v1.5.2PL0 Copyright (c) Steve Scherf et al.
# Submitted via: CDex 1.70beta2
#
DISCID=840ebf0b
DTITLE=劉星 - 一意孤行
DYEAR=1993
DGENRE=New Age
TTITLE0=閒雲孤鶴 
TTITLE1=無所不至 
TTITLE2=孤芳自賞 
TTITLE3=虛懷若谷
TTITLE4=一息尚存
TTITLE5=輪迴
TTITLE6=行雲流水 
TTITLE7=即興曲(一) 
TTITLE8=遙遙長路
TTITLE9=一意孤行 
TTITLE10=即興曲(二) 
EXTD=YEAR: 1993
EXTT0=
EXTT1=
EXTT2=
EXTT3=
EXTT4=
EXTT5=
EXTT6=
EXTT7=
EXTT8=
EXTT9=
EXTT10=
PLAYORDER=
